<?xml version="1.0" encoding="UTF-8"?>
<svg xmlns="http://www.w3.org/2000/svg" xmlns:xlink="http://www.w3.org/1999/xlink" width="400pt" height="249pt" viewBox="0 0 400 249" version="1.1">
<defs>
<filter id="alpha" filterUnits="objectBoundingBox" x="0%" y="0%" width="100%" height="100%">
  <feColorMatrix type="matrix" in="SourceGraphic" values="0 0 0 0 1 0 0 0 0 1 0 0 0 0 1 0 0 0 1 0"/>
</filter>
<mask id="mask0">
  <g filter="url(#alpha)">
<rect x="0" y="0" width="400" height="249" style="fill:rgb(0%,0%,0%);fill-opacity:0.101961;stroke:none;"/>
  </g>
</mask>
<clipPath id="clip1">
  <rect width="400" height="249"/>
</clipPath>
<g id="surface6" clip-path="url(#clip1)">
<path style=" stroke:none;fill-rule:nonzero;fill:rgb(0%,0%,0%);fill-opacity:1;" d="M 194.976562 150.199219 L 243.757812 136.421875 L 210.285156 56.375 L 164.292969 78.027344 Z M 194.976562 150.199219 "/>
</g>
</defs>
<g id="surface1">
<path style=" stroke:none;fill-rule:nonzero;fill:rgb(89.803922%,89.803922%,89.803922%);fill-opacity:1;" d="M 58.554688 220.523438 C 63.265625 222.183594 68.503906 221.257812 72.367188 218.085938 C 77.207031 214.019531 78.726562 207.324219 79.960938 201.125 L 83.609375 182.777344 L 75.964844 188.046875 C 70.46875 191.835938 64.847656 195.746094 61.042969 201.234375 C 57.234375 206.722656 55.574219 214.214844 58.632812 220.15625 "/>
<path style=" stroke:none;fill-rule:nonzero;fill:rgb(94.509804%,94.509804%,94.509804%);fill-opacity:1;" d="M 59.734375 244.011719 C 58.769531 236.992188 57.78125 229.886719 58.457031 222.792969 C 59.058594 216.496094 60.976562 210.34375 64.886719 205.300781 C 66.960938 202.625 69.484375 200.335938 72.34375 198.53125 C 73.089844 198.0625 73.777344 199.246094 73.035156 199.714844 C 68.085938 202.84375 64.257812 207.46875 62.101562 212.917969 C 59.722656 218.976562 59.339844 225.585938 59.75 232.023438 C 59.996094 235.914062 60.523438 239.78125 61.050781 243.644531 C 61.136719 244.007812 60.929688 244.375 60.574219 244.488281 C 60.210938 244.585938 59.835938 244.371094 59.734375 244.007812 Z M 59.734375 244.011719 "/>
<path style=" stroke:none;fill-rule:nonzero;fill:rgb(89.803922%,89.803922%,89.803922%);fill-opacity:1;" d="M 66.660156 232.75 C 68.679688 235.828125 72.160156 237.625 75.835938 237.492188 C 80.480469 237.273438 84.355469 234.027344 87.839844 230.945312 L 98.152344 221.832031 L 91.328125 221.503906 C 86.417969 221.269531 81.386719 221.050781 76.710938 222.566406 C 72.035156 224.082031 67.726562 227.726562 66.871094 232.570312 "/>
<path style=" stroke:none;fill-rule:nonzero;fill:rgb(94.509804%,94.509804%,94.509804%);fill-opacity:1;" d="M 57.015625 248.042969 C 61.644531 239.839844 67.019531 230.722656 76.617188 227.808594 C 79.289062 227 82.085938 226.710938 84.863281 226.953125 C 85.738281 227.03125 85.519531 228.382812 84.648438 228.304688 C 79.992188 227.917969 75.34375 229.148438 71.488281 231.789062 C 67.777344 234.320312 64.886719 237.832031 62.445312 241.5625 C 60.945312 243.84375 59.605469 246.222656 58.261719 248.601562 C 57.832031 249.359375 56.582031 248.8125 57.015625 248.042969 Z M 57.015625 248.042969 "/>
<path style=" stroke:none;fill-rule:nonzero;fill:rgb(24.705882%,23.921569%,33.72549%);fill-opacity:1;" d="M 162.519531 84.65625 L 162.519531 76.769531 L 210.730469 52.480469 L 242.875 134.929688 L 193.65625 148 Z M 162.519531 84.65625 "/>
<path style=" stroke:none;fill-rule:nonzero;fill:rgb(35.686275%,75.294118%,87.058824%);fill-opacity:1;" d="M 243.757812 137.011719 L 210.289062 56.96875 L 207.738281 58.167969 L 206.742188 55.785156 L 164.585938 78.328125 L 164.636719 78.457031 L 164.292969 78.617188 L 167.835938 86.953125 L 191.429688 149.605469 L 194.144531 148.839844 L 194.976562 150.789062 Z M 243.757812 137.011719 "/>
<use xlink:href="#surface6" mask="url(#mask0)"/>
<path style=" stroke:none;fill-rule:nonzero;fill:rgb(35.686275%,75.294118%,87.058824%);fill-opacity:1;" d="M 221.53125 126.746094 C 220.179688 126.101562 219.292969 124.769531 219.214844 123.273438 L 218.757812 114.660156 C 218.640625 112.40625 220.371094 110.480469 222.625 110.359375 L 294.347656 106.566406 C 296.601562 106.449219 298.523438 108.179688 298.644531 110.433594 L 299.097656 119.050781 C 299.214844 121.304688 297.488281 123.230469 295.234375 123.351562 L 223.511719 127.144531 C 222.828125 127.179688 222.144531 127.042969 221.53125 126.746094 Z M 221.53125 126.746094 "/>
<path style=" stroke:none;fill-rule:nonzero;fill:rgb(18.431373%,18.039216%,25.490196%);fill-opacity:1;" d="M 270.972656 126.917969 C 269.550781 126.226562 268.648438 124.777344 268.660156 123.195312 L 268.574219 106.976562 C 268.582031 105.890625 269.019531 104.851562 269.792969 104.089844 C 270.566406 103.328125 271.609375 102.90625 272.695312 102.914062 L 305.414062 105.804688 C 306.28125 105.808594 307.375 107.152344 308.253906 108.230469 C 308.527344 108.570312 308.765625 108.859375 308.941406 109.039062 C 309.015625 109.113281 309.089844 109.195312 309.160156 109.277344 C 309.785156 110.023438 310.121094 110.96875 310.113281 111.941406 L 310.042969 120.566406 C 310.019531 122.824219 308.175781 124.640625 305.921875 124.625 L 272.738281 127.320312 C 272.125 127.316406 271.523438 127.179688 270.972656 126.917969 Z M 270.972656 126.917969 "/>
<path style=" stroke:none;fill-rule:nonzero;fill:rgb(35.686275%,75.294118%,87.058824%);fill-opacity:1;" d="M 328.777344 50.632812 C 328.777344 67.910156 314.785156 81.914062 297.527344 81.914062 C 280.269531 81.914062 266.28125 67.910156 266.28125 50.632812 C 266.28125 33.359375 280.269531 19.355469 297.527344 19.355469 C 314.785156 19.355469 328.777344 33.359375 328.777344 50.632812 Z M 328.777344 50.632812 "/>
<path style=" stroke:none;fill-rule:nonzero;fill:rgb(35.686275%,75.294118%,87.058824%);fill-opacity:1;" d="M 291.4375 249.261719 L 282.820312 249.261719 C 280.5625 249.261719 278.734375 247.429688 278.734375 245.171875 L 278.734375 172.105469 C 278.734375 169.847656 280.5625 168.015625 282.820312 168.015625 L 291.4375 168.015625 C 293.691406 168.015625 295.523438 169.847656 295.523438 172.105469 L 295.523438 245.171875 C 295.523438 247.429688 293.691406 249.261719 291.4375 249.261719 Z M 291.4375 249.261719 "/>
<path style=" stroke:none;fill-rule:nonzero;fill:rgb(35.686275%,75.294118%,87.058824%);fill-opacity:1;" d="M 314.167969 249.261719 L 305.550781 249.261719 C 303.292969 249.261719 301.464844 247.429688 301.464844 245.171875 L 301.464844 172.105469 C 301.464844 169.847656 303.292969 168.015625 305.550781 168.015625 L 314.167969 168.015625 C 316.421875 168.015625 318.253906 169.847656 318.253906 172.105469 L 318.253906 245.171875 C 318.253906 247.429688 316.421875 249.261719 314.167969 249.261719 Z M 314.167969 249.261719 "/>
<path style=" stroke:none;fill-rule:nonzero;fill:rgb(18.431373%,18.039216%,25.490196%);fill-opacity:1;" d="M 280.171875 62.226562 L 280.136719 61.058594 C 282.308594 61 284.226562 60.863281 285.664062 59.808594 C 286.488281 59.171875 286.996094 58.207031 287.054688 57.164062 C 287.105469 56.523438 286.855469 55.898438 286.382812 55.472656 C 285.425781 54.664062 283.890625 54.925781 282.769531 55.4375 L 281.800781 55.882812 L 283.65625 42.328125 L 284.8125 42.488281 L 283.238281 54.015625 C 284.757812 53.570312 286.167969 53.761719 287.136719 54.578125 C 287.886719 55.234375 288.289062 56.207031 288.222656 57.203125 C 288.152344 58.605469 287.46875 59.902344 286.351562 60.753906 C 284.503906 62.105469 282.101562 62.171875 280.171875 62.226562 Z M 280.171875 62.226562 "/>
<path style=" stroke:none;fill-rule:nonzero;fill:rgb(18.431373%,18.039216%,25.490196%);fill-opacity:1;" d="M 290.535156 43.480469 L 296.824219 43.480469 L 296.824219 44.648438 L 290.535156 44.648438 Z M 290.535156 43.480469 "/>
<path style=" stroke:none;fill-rule:nonzero;fill:rgb(18.431373%,18.039216%,25.490196%);fill-opacity:1;" d="M 270.683594 43.480469 L 276.972656 43.480469 L 276.972656 44.648438 L 270.683594 44.648438 Z M 270.683594 43.480469 "/>
<path style=" stroke:none;fill-rule:nonzero;fill:rgb(18.431373%,18.039216%,25.490196%);fill-opacity:1;" d="M 333.128906 154.804688 L 304.285156 97.230469 L 304.695312 97.230469 C 306.789062 97.230469 308.488281 95.53125 308.488281 93.433594 L 308.488281 92.265625 C 308.488281 90.167969 306.789062 88.46875 304.695312 88.464844 L 291.847656 88.464844 C 289.753906 88.46875 288.054688 90.167969 288.054688 92.265625 L 288.054688 93.433594 C 288.058594 95.355469 289.503906 96.972656 291.414062 97.1875 L 262.488281 154.835938 C 259.691406 160.410156 259.980469 167.039062 263.25 172.347656 C 266.523438 177.660156 272.308594 180.890625 278.542969 180.890625 L 317.046875 180.890625 C 323.285156 180.890625 329.078125 177.65625 332.355469 172.339844 C 335.632812 167.023438 335.925781 160.390625 333.128906 154.804688 Z M 333.128906 154.804688 "/>
<path style=" stroke:none;fill-rule:nonzero;fill:rgb(18.431373%,18.039216%,25.490196%);fill-opacity:1;" d="M 292.824219 30.433594 C 285.285156 35.613281 273.707031 32.757812 270.289062 24.007812 C 268.601562 19.699219 268.84375 14.875 270.953125 10.757812 C 273.320312 6.3125 277.898438 3.644531 282.71875 2.644531 C 289.183594 1.300781 295.867188 3.101562 301.777344 5.71875 C 302.210938 5.945312 302.746094 5.878906 303.109375 5.546875 C 308.753906 1.042969 316.953125 3 322.742188 6.148438 C 329 9.664062 334.292969 14.679688 338.152344 20.738281 C 342.082031 26.75 344.539062 33.601562 345.324219 40.746094 C 346.777344 56.433594 340.046875 71.765625 327.519531 81.304688 C 326.398438 82.144531 327.492188 84.058594 328.628906 83.207031 C 341.089844 73.875 348.5625 58.300781 347.675781 42.691406 C 346.816406 27.46875 338.125 12.804688 325.042969 4.929688 C 318.101562 0.75 308.429688 -1.496094 301.554688 3.988281 L 302.886719 3.816406 C 296.976562 1.203125 290.5 -0.644531 283.988281 0.210938 C 278.453125 0.941406 273.019531 3.597656 269.847656 8.328125 C 267.027344 12.71875 266.238281 18.113281 267.679688 23.132812 C 269.089844 28.101562 272.75 32.117188 277.5625 33.980469 C 282.851562 36.082031 289.214844 35.578125 293.933594 32.335938 C 295.09375 31.539062 293.996094 29.628906 292.824219 30.433594 Z M 292.824219 30.433594 "/>
<path style=" stroke:none;fill-rule:nonzero;fill:rgb(35.686275%,75.294118%,87.058824%);fill-opacity:1;" d="M 253.804688 147.65625 L 220.332031 67.613281 L 217.574219 68.316406 L 216.785156 66.429688 L 165.769531 81.285156 L 165.84375 81.480469 L 165.472656 81.574219 L 169.0625 89.738281 L 192.613281 150.199219 L 195.550781 150.007812 L 196.15625 151.382812 Z M 253.804688 147.65625 "/>
<path style=" stroke:none;fill-rule:nonzero;fill:rgb(24.705882%,23.921569%,33.72549%);fill-opacity:1;" d="M 195.664062 160.066406 L 254.394531 147.527344 L 221.78125 69.574219 L 162.519531 84.65625 Z M 195.664062 160.066406 "/>
<path style=" stroke:none;fill-rule:nonzero;fill:rgb(100%,100%,100%);fill-opacity:1;" d="M 213.035156 99.027344 C 213.035156 105.234375 208.007812 110.265625 201.808594 110.265625 C 195.609375 110.265625 190.582031 105.234375 190.582031 99.027344 C 190.582031 92.820312 195.609375 87.789062 201.808594 87.789062 C 208.007812 87.789062 213.035156 92.820312 213.035156 99.027344 Z M 213.035156 99.027344 "/>
<path style=" stroke:none;fill-rule:nonzero;fill:rgb(35.686275%,75.294118%,87.058824%);fill-opacity:1;" d="M 292.460938 113.453125 C 292.886719 113.472656 293.304688 113.558594 293.703125 113.707031 C 294.722656 114.082031 295.546875 114.847656 295.996094 115.835938 L 299.585938 123.679688 C 300.523438 125.734375 299.621094 128.160156 297.570312 129.101562 L 232.273438 159.042969 C 230.21875 159.980469 227.796875 159.078125 226.855469 157.027344 L 223.265625 149.183594 C 222.328125 147.128906 223.230469 144.703125 225.277344 143.761719 L 290.578125 113.820312 C 291.167969 113.546875 291.8125 113.421875 292.460938 113.453125 Z M 292.460938 113.453125 "/>
<path style=" stroke:none;fill-rule:nonzero;fill:rgb(18.431373%,18.039216%,25.490196%);fill-opacity:1;" d="M 293.699219 111.652344 C 295.246094 111.722656 296.621094 112.664062 297.25 114.078125 L 300.753906 121.960938 C 301.152344 122.847656 301.214844 123.851562 300.941406 124.785156 C 300.910156 124.886719 300.875 124.988281 300.835938 125.089844 C 300.746094 125.324219 300.644531 125.6875 300.527344 126.105469 C 300.152344 127.445312 299.683594 129.113281 298.871094 129.476562 L 270.0625 145.171875 C 269.070312 145.621094 267.941406 145.65625 266.921875 145.265625 C 265.90625 144.878906 265.085938 144.101562 264.644531 143.105469 L 258.253906 128.195312 C 257.339844 126.128906 258.269531 123.714844 260.328125 122.796875 L 291.878906 111.996094 C 292.449219 111.742188 293.074219 111.621094 293.699219 111.652344 Z M 293.699219 111.652344 "/>
<path style=" stroke:none;fill-rule:nonzero;fill:rgb(24.705882%,23.921569%,33.72549%);fill-opacity:1;" d="M 399.410156 249.257812 L 174.296875 249.257812 C 173.972656 249.257812 173.707031 248.992188 173.707031 248.664062 C 173.707031 248.335938 173.972656 248.074219 174.296875 248.074219 L 399.410156 248.074219 C 399.734375 248.074219 400 248.335938 400 248.664062 C 400 248.992188 399.734375 249.257812 399.410156 249.257812 Z M 399.410156 249.257812 "/>
<path style=" stroke:none;fill-rule:nonzero;fill:rgb(24.705882%,23.921569%,33.72549%);fill-opacity:1;" d="M 112.851562 249.257812 L 0.589844 249.257812 C 0.265625 249.257812 0 248.992188 0 248.664062 C 0 248.335938 0.265625 248.074219 0.589844 248.074219 L 112.851562 248.074219 C 113.175781 248.074219 113.441406 248.335938 113.441406 248.664062 C 113.441406 248.992188 113.175781 249.257812 112.851562 249.257812 Z M 112.851562 249.257812 "/>
</g>
</svg>
